<svg xmlns="http://www.w3.org/2000/svg" xmlns:xlink="http://www.w3.org/1999/xlink">
    <symbol id="logo">
        <g clip-path="url(#clip0_2401_140)">
        <path fill-rule="evenodd" clip-rule="evenodd" d="M111.763 2.45297C110.368 1.06629 108.483 0.288208 106.519 0.288208C104.554 0.288208 102.67 1.06629 101.275 2.45297L76.3845 27.7889C74.9665 29.2536 74.1733 31.2144 74.1733 33.2555C74.1733 35.2966 74.9665 37.2575 76.3845 38.7222C77.0757 39.4397 77.904 40.0103 78.8199 40.4C79.7359 40.7898 80.7207 40.9906 81.7157 40.9906C82.7107 40.9906 83.6956 40.7898 84.6115 40.4C85.5274 40.0103 86.3557 39.4397 87.0469 38.7222L111.763 13.4213C113.183 11.9507 113.977 9.98405 113.977 7.93716C113.977 5.89027 113.183 3.92361 111.763 2.45297Z" fill="#34495E"/>
        <path fill-rule="evenodd" clip-rule="evenodd" d="M51.7037 2.45295C52.3974 1.73983 53.2264 1.17309 54.142 0.786137C55.0576 0.39918 56.0412 0.199829 57.0349 0.199829C58.0285 0.199829 59.0121 0.39918 59.9277 0.786137C60.8433 1.17309 61.6723 1.73983 62.366 2.45295L87.0818 27.7889C88.4998 29.2536 89.293 31.2144 89.293 33.2555C89.293 35.2966 88.4998 37.2574 87.0818 38.7222C86.3906 39.4397 85.5623 40.0103 84.6464 40.4C83.7305 40.7897 82.7456 40.9906 81.7506 40.9906C80.7556 40.9906 79.7707 40.7897 78.8548 40.4C77.9389 40.0103 77.1106 39.4397 76.4194 38.7222L51.7037 13.4213C50.2752 11.955 49.4755 9.9867 49.4755 7.93714C49.4755 5.88758 50.2752 3.91931 51.7037 2.45295Z" fill="#34495E"/>
        <path fill-rule="evenodd" clip-rule="evenodd" d="M62.4011 2.45297C61.7099 1.73548 60.8816 1.16487 59.9657 0.775144C59.0497 0.38542 58.0649 0.18457 57.0699 0.18457C56.0748 0.18457 55.09 0.38542 54.1741 0.775144C53.2582 1.16487 52.4299 1.73548 51.7387 2.45297L27.023 27.7889C25.6049 29.2536 24.8118 31.2144 24.8118 33.2555C24.8118 35.2966 25.6049 37.2575 27.023 38.7222C27.7167 39.4353 28.5457 40.0021 29.4613 40.389C30.3769 40.776 31.3605 40.9753 32.3541 40.9753C33.3478 40.9753 34.3314 40.776 35.247 40.389C36.1626 40.0021 36.9916 39.4353 37.6853 38.7222L62.4011 13.3863C63.8191 11.9216 64.6123 9.96073 64.6123 7.91964C64.6123 5.87854 63.8191 3.91771 62.4011 2.45297Z" fill="#34495E"/>
        <path fill-rule="evenodd" clip-rule="evenodd" d="M2.2024 2.27778C2.8961 1.56466 3.72517 0.997923 4.64076 0.610966C5.55636 0.224009 6.53995 0.0246582 7.53359 0.0246582C8.52723 0.0246582 9.51083 0.224009 10.4264 0.610966C11.342 0.997923 12.1711 1.56466 12.8648 2.27778L37.5805 27.6137C38.9986 29.0784 39.7917 31.0393 39.7917 33.0803C39.7917 35.1214 38.9986 37.0823 37.5805 38.547C36.8868 39.2601 36.0577 39.8269 35.1421 40.2138C34.2266 40.6008 33.243 40.8001 32.2493 40.8001C31.2557 40.8001 30.2721 40.6008 29.3565 40.2138C28.4409 39.8269 27.6118 39.2601 26.9181 38.547L2.2024 13.2111C0.78434 11.7464 -0.00878906 9.78554 -0.00878906 7.74445C-0.00878906 5.70335 0.78434 3.74252 2.2024 2.27778Z" fill="#34495E"/>
        </g>
        <defs>
        <clipPath id="clip0_2401_140">
        <rect width="114" height="41" fill="white"/>
        </clipPath>
        </defs>
    </symbol>
    <symbol id="menu"> 
        <path d="M1.5 2H27M27 21.5H1.5M1.5 11.5H17" stroke="white" stroke-width="3" stroke-linecap="round"/>
    </symbol>
    <symbol id="balance"> 
        <g clip-path="url(#clip0_2401_96)">
        <path d="M29.5545 17.632L26.1326 10.3025L27.6097 10.7262C27.9341 10.8193 28.2726 10.6319 28.3655 10.3073C28.4586 9.98287 28.2712 9.64461 27.9468 9.55151L17.6759 6.6041C17.678 6.56018 17.6792 6.51625 17.6792 6.47209C17.6794 5.2525 16.8561 4.18664 15.6759 3.87941C14.4957 3.57195 13.257 4.1007 12.6624 5.16537L2.39049 2.21819C2.06608 2.1251 1.72758 2.31272 1.63448 2.63714C1.54162 2.96155 1.72901 3.29981 2.05342 3.39291L4.08059 3.97466L0.409396 11.8379C0.164475 11.9236 0.000239036 12.1547 3.21511e-07 12.4144C-0.000715825 14.3984 1.19501 16.1868 3.02857 16.9443C4.86214 17.7019 6.97166 17.2789 8.37148 15.8732C9.30414 14.9639 9.83098 13.7171 9.83337 12.4144C9.83337 12.1408 9.65123 11.9007 9.38793 11.8265L5.97598 4.51869L12.3244 6.34008C12.3222 6.384 12.321 6.42793 12.321 6.47233C12.3229 7.71579 13.1787 8.79502 14.389 9.08005V23.9401C12.2929 23.9401 10.5306 23.9082 10.2335 23.9694C9.09932 24.2081 8.28507 25.2055 8.27791 26.3647V27.2202C8.28817 27.5652 8.56818 27.8411 8.91336 27.8461H21.0869C21.432 27.8411 21.712 27.5652 21.7223 27.2202V26.3647C21.7152 25.2055 20.9009 24.2081 19.7668 23.9694C19.5612 23.9082 17.6174 23.9401 15.6112 23.9401V9.08005C16.3436 8.90698 16.9697 8.4348 17.3378 7.77858L24.2548 9.76349L20.576 17.6435C20.3308 17.7292 20.1666 17.9602 20.1664 18.2197C20.1659 20.2037 21.3616 21.9921 23.1952 22.7496C25.0287 23.5072 27.138 23.0845 28.5379 21.6787C29.4705 20.7692 29.9976 19.5224 30 18.2197C29.9997 17.9461 29.8178 17.7062 29.5545 17.632ZM4.90129 5.07632L8.02821 11.7739H1.7746L4.90129 5.07632ZM4.90129 16.0639C3.10138 16.0744 1.56191 14.7729 1.27307 12.9962H8.55744C8.2464 14.7715 6.70382 16.066 4.90129 16.0639ZM20.5001 26.3647V26.6239H9.50012V26.3647C9.50012 25.6908 10.073 25.1572 10.7467 25.1572H19.2535C19.9272 25.1572 20.5001 25.6908 20.5001 26.3647ZM15.0001 7.92897C14.3787 7.92944 13.8254 7.53604 13.6218 6.94904C13.4181 6.36204 13.6089 5.71059 14.0968 5.32602C14.585 4.94145 15.2632 4.90851 15.7862 5.24414C16.3092 5.57954 16.562 6.2095 16.4162 6.81345C16.4006 6.85212 16.3892 6.89199 16.3818 6.93281C16.1829 7.52721 15.6267 7.92825 15.0001 7.92897ZM28.1948 17.5795H21.9412L25.0679 10.8819L28.1948 17.5795ZM25.0679 21.8694C23.268 21.8799 21.7285 20.5785 21.4397 18.8017H28.7241C28.413 20.577 26.8704 21.8716 25.0679 21.8694Z" fill="#33485D"/>
        </g>
        <defs>
        <clipPath id="clip0_2401_96">
        <rect width="30" height="30" fill="white"/>
        </clipPath>
        </defs>
    </symbol>
    <symbol id="heart"> 
        <g clip-path="url(#clip0_2401_88)">
        <path d="M29.5357 7.82626C28.5451 5.14006 26.1738 3.38253 23.3479 3.23868C23.3367 3.23839 23.3262 3.23804 23.3154 3.23804H22.9006C19.333 3.23804 16.2684 5.43485 14.9888 8.54661C13.7091 5.43485 10.6446 3.23804 7.07692 3.23804H6.66219C6.65135 3.23804 6.64051 3.23833 6.62967 3.23868C3.81012 3.38224 1.44613 5.14106 0.460988 7.82913C-0.55609 10.6043 0.137196 13.5707 2.26797 15.5697L13.4773 26.1719C13.9147 26.5656 14.4679 26.7621 15.0169 26.7621C15.5714 26.7621 16.1213 26.5618 16.5431 26.162L18.2473 24.5538C18.6751 24.126 18.9173 23.562 18.9288 22.9663C18.9403 22.3573 18.7099 21.7846 18.2793 21.3543C18.0301 21.1051 17.6262 21.1051 17.377 21.3543C17.1279 21.6034 17.1279 22.0073 17.377 22.2565C17.7589 22.6387 17.7452 23.2512 17.3585 23.6382L15.6667 25.2343C15.3046 25.5766 14.7176 25.5715 14.3424 25.234L3.14273 14.6404C1.38971 12.9958 0.821518 10.5543 1.65924 8.26812C2.46321 6.07388 4.38563 4.63633 6.67877 4.51381H7.07692C11.0877 4.51381 14.3507 7.7768 14.3507 11.7876C14.3507 12.1398 14.6365 12.4256 14.9887 12.4256C15.3409 12.4256 15.6268 12.1398 15.6268 11.7876C15.6268 7.7768 18.8897 4.51381 22.9005 4.51381H23.2987C25.5991 4.63697 27.5293 6.07417 28.3383 8.26776C29.1783 10.5456 28.6136 12.9881 26.8519 14.6546L23.2789 18.2277C22.8498 18.6568 22.6133 19.219 22.6133 19.8113C22.6133 20.4038 22.8497 20.9659 23.2789 21.395C23.528 21.6441 23.9319 21.6441 24.1811 21.395C24.4302 21.1458 24.4302 20.7419 24.1811 20.4927C23.9929 20.3045 23.8895 20.0627 23.8895 19.8113C23.8895 19.5599 23.9929 19.3181 24.1811 19.1298L27.7414 15.5692C29.8682 13.5582 30.5554 10.5913 29.5357 7.82626Z" fill="#33485D"/>
        </g>
        <defs>
        <clipPath id="clip0_2401_88">
        <rect width="30" height="30" fill="white"/>
        </clipPath>
        </defs>
    </symbol>
    <symbol id="shopping-cart"> 
        <g clip-path="url(#clip0_2401_77)">
        <path d="M29.8751 5.24996C29.7501 5.12498 29.6251 4.99994 29.3751 4.99994H5.62506L5.00004 1.74998C5.00004 1.49996 4.62504 1.25 4.37502 1.25H0.625022C0.250081 1.24994 6.10352e-05 1.49996 6.10352e-05 1.87496C6.10352e-05 2.24996 0.250081 2.49998 0.625081 2.49998H3.8751L6.8751 17.75C7.2501 19.75 9.1251 21.25 11.1251 21.25H25.5001C25.8751 21.25 26.1251 21 26.1251 20.625C26.1251 20.25 25.8751 20 25.5001 20H11.2501C10.25 20 9.25008 19.5 8.75004 18.6249L27.0001 16.125C27.2501 16.125 27.5 15.875 27.5 15.625L30.0001 5.62496C30.0001 5.62496 30.0001 5.37494 29.8751 5.24996ZM26.375 15L8.12502 17.375L5.87502 6.12495H28.5001L26.375 15Z" fill="#33485D"/>
        <path d="M10.625 22.5C8.87508 22.5 7.50006 23.875 7.50006 25.625C7.50006 27.375 8.87508 28.75 10.625 28.75C12.3751 28.75 13.75 27.3749 13.75 25.625C13.7501 23.875 12.3751 22.5 10.625 22.5ZM10.625 27.5C9.62502 27.5 8.75004 26.6249 8.75004 25.625C8.75004 24.625 9.62502 23.75 10.625 23.75C11.6251 23.75 12.5 24.625 12.5 25.625C12.5 26.6249 11.6251 27.5 10.625 27.5Z" fill="#33485D"/>
        <path d="M23.125 22.5C21.375 22.5 20.0001 23.875 20.0001 25.625C20.0001 27.375 21.3751 28.75 23.125 28.75C24.8751 28.75 26.25 27.3749 26.25 25.625C26.25 23.875 24.875 22.5 23.125 22.5ZM23.125 27.5C22.125 27.5 21.25 26.6249 21.25 25.625C21.25 24.625 22.125 23.75 23.125 23.75C24.1251 23.75 25 24.625 25 25.625C25 26.6249 24.125 27.5 23.125 27.5Z" fill="#33485D"/>
        </g>
        <defs>
        <clipPath id="clip0_2401_77">
        <rect width="30" height="30" fill="white"/>
        </clipPath>
        </defs>
    </symbol>
    <symbol id="account"> 
        <path d="M19.9932 9.60696C19.9849 9.37219 19.7966 9.18778 19.5532 9.19672C19.3184 9.20481 19.1348 9.40172 19.1429 9.63653C19.2314 12.1602 18.318 14.5466 16.5709 16.3557C14.8315 18.1572 12.4969 19.1493 9.99786 19.1493C9.7631 19.1493 9.57251 19.3399 9.57251 19.5746C9.57251 19.8094 9.76306 20 9.99786 20C12.73 20 15.2816 18.9158 17.183 16.9467C19.0917 14.9702 20.0895 12.3635 19.9932 9.60696Z" fill="#FFBE48"/>
        <path d="M19.9896 9.80711C19.937 7.06607 18.7946 4.52533 16.7735 2.65389C12.9678 -0.884661 7.0059 -0.884661 3.20005 2.65408C1.18716 4.52787 0.0513018 7.06903 0.00239565 9.80989C-0.0467449 12.5509 0.994464 15.1287 2.93399 17.0682C3.01501 17.1494 3.1254 17.1951 3.24044 17.1928C3.35528 17.1911 3.46458 17.1435 3.54348 17.0599C3.66067 16.9363 3.80504 16.7875 3.86204 16.7328C3.8818 16.7188 3.90051 16.703 3.91817 16.6854L4.85707 15.7467H7.91328C8.26715 15.7467 8.57914 15.5334 8.70824 15.2033C8.835 14.8796 8.75289 14.5194 8.51175 14.2973C7.68703 13.4724 7.23277 12.3784 7.23277 11.2166V7.5588C7.23277 7.18704 7.37355 6.84997 7.6398 6.58353C7.89863 6.32493 8.25398 6.1765 8.61507 6.1765H11.3585C11.7302 6.1765 12.0675 6.31728 12.3337 6.58376C12.5926 6.84216 12.7408 7.19774 12.7408 7.55884V11.2167C12.7408 12.3787 12.2867 13.4729 11.4492 14.3108C11.223 14.5573 11.1668 14.9209 11.3059 15.2371C11.4439 15.5515 11.7412 15.7467 12.0815 15.7467H15.314C15.5488 15.7467 15.7394 15.5561 15.7394 15.3214C15.7394 15.0866 15.5489 14.896 15.314 14.896L12.0881 14.9009C12.0847 14.8971 12.0815 14.8877 12.0811 14.8809C13.0553 13.8977 13.5914 12.5973 13.5914 11.2166V7.5588C13.5914 6.97376 13.3522 6.39892 12.9351 5.98208C12.5121 5.55888 11.9522 5.3258 11.3584 5.3258H8.61504C8.03 5.3258 7.45515 5.56505 7.03812 5.98208C6.61512 6.40529 6.38203 6.96525 6.38203 7.5588V11.2166C6.38203 12.6055 6.92477 13.9132 7.91324 14.896H4.68071C4.56801 14.896 4.45973 14.9409 4.38 15.0206L3.32286 16.0777C3.29606 16.1001 3.26778 16.1258 3.23735 16.1547C1.65446 14.42 0.810636 12.1891 0.852941 9.82516C0.897824 7.31739 1.93731 4.99169 3.77965 3.27697C7.26035 0.0404149 12.7133 0.0404151 16.1951 3.2774C18.0455 4.99084 19.0912 7.31552 19.1395 9.82325C19.1875 12.3312 18.2361 14.6903 16.4597 16.4667C16.2936 16.6328 16.2936 16.902 16.4597 17.0681C16.5428 17.1513 16.6515 17.1927 16.7604 17.1927C16.8692 17.1927 16.9779 17.1512 17.0609 17.0683C19.0022 15.1271 20.0423 12.5484 19.9896 9.80711Z" fill="#FFBE48"/>
    </symbol>
    <symbol id="search"> 
       <path d="M18.8151 16.8296L13.5799 11.6007C14.5729 10.3764 15.1706 8.81977 15.1706 7.12503C15.1706 3.19631 11.9704 0 8.03691 0C4.10342 0 0.903259 3.19631 0.903259 7.12503C0.903259 11.0537 4.10345 14.2501 8.03695 14.2501C9.73375 14.2501 11.2922 13.653 12.5181 12.6613L17.7533 17.8902C17.9 18.0366 18.1377 18.0366 18.2843 17.8902L18.8152 17.3599C18.9618 17.2135 18.9618 16.976 18.8151 16.8296ZM8.03695 12.75C4.93137 12.75 2.4051 10.2268 2.4051 7.12503C2.4051 4.02322 4.93137 1.50001 8.03695 1.50001C11.1425 1.50001 13.6688 4.02322 13.6688 7.12503C13.6688 10.2268 11.1425 12.75 8.03695 12.75Z" fill="#33485D"/>
    </symbol>
</svg>
